<svg width="14" height="10" viewBox="0 0 14 10" fill="none" xmlns="http://www.w3.org/2000/svg">
<path d="M0 1.2087C0 0.867385 0.276687 0.590698 0.617998 0.590698H13.382C13.7233 0.590698 14 0.867385 14 1.2087V3.96739C14 3.96739 14 3.96739 14 3.96739C13.4728 3.96739 13.0454 4.39476 13.0454 4.92194C13.0454 5.44912 13.4728 5.87648 14 5.87648C14 5.87648 14 5.87648 14 5.87648L14 8.63538C14 8.97669 13.7233 9.25337 13.382 9.25337H0.617997C0.276687 9.25337 0 8.97669 0 8.63538V5.87654C0.527165 5.87652 0.95451 5.44916 0.95451 4.92199C0.95451 4.39483 0.527165 3.96747 0 3.96745V1.2087Z" fill="#1E1E1E"/>
</svg>
