<svg width="15" height="17" viewBox="0 0 15 17" fill="none" xmlns="http://www.w3.org/2000/svg">
<path d="M7.63322 0.770264L7.96679 0.397792L7.63322 0.0990713L7.29966 0.397792L7.63322 0.770264ZM14.0711 6.53563H14.5711V6.31221L14.4046 6.16316L14.0711 6.53563ZM1.19537 6.53563L0.861809 6.16316L0.695374 6.31221V6.53563H1.19537ZM1.19537 15.7703H0.695374V16.2703H1.19537V15.7703ZM5.72962 15.7703V16.2703H6.22962V15.7703H5.72962ZM9.53681 15.7703H9.03681V16.2703H9.53681V15.7703ZM14.0711 15.7703V16.2703H14.5711V15.7703H14.0711ZM7.29966 1.14274L13.7375 6.9081L14.4046 6.16316L7.96679 0.397792L7.29966 1.14274ZM1.52894 6.9081L7.96679 1.14274L7.29966 0.397792L0.861809 6.16316L1.52894 6.9081ZM1.69537 15.7703V6.53563H0.695374V15.7703H1.69537ZM5.72962 15.2703H1.19537V16.2703H5.72962V15.2703ZM6.22962 15.7703V12.8945H5.22962V15.7703H6.22962ZM6.22962 12.8945C6.22962 12.1194 6.85803 11.4909 7.63321 11.4909V10.4909C6.30575 10.4909 5.22962 11.5671 5.22962 12.8945H6.22962ZM7.63321 11.4909C8.4084 11.4909 9.03681 12.1194 9.03681 12.8945H10.0368C10.0368 11.5671 8.96068 10.4909 7.63321 10.4909V11.4909ZM9.03681 12.8945V15.7703H10.0368V12.8945H9.03681ZM14.0711 15.2703H9.53681V16.2703H14.0711V15.2703ZM13.5711 6.53563V15.7703H14.5711V6.53563H13.5711Z" fill="#1E1E1E"/>
</svg>
