<svg width="23" height="15" viewBox="0 0 23 15" fill="none" xmlns="http://www.w3.org/2000/svg">
<mask id="path-1-inside-1_83_549" fill="white">
<path fill-rule="evenodd" clip-rule="evenodd" d="M0.306458 1.2616C0.306458 0.709312 0.754173 0.261597 1.30646 0.261597H21.9603C22.5126 0.261597 22.9603 0.709312 22.9603 1.2616V5.72552C22.9603 5.72552 22.9603 5.72552 22.9603 5.72552C22.1072 5.72552 21.4157 6.41706 21.4157 7.2701C21.4157 8.12315 22.1072 8.81468 22.9603 8.81468C22.9603 8.81468 22.9603 8.81468 22.9603 8.81468V13.2789C22.9603 13.8312 22.5126 14.2789 21.9603 14.2789H1.30646C0.754172 14.2789 0.306458 13.8312 0.306458 13.2789V8.81477C1.15948 8.81474 1.85098 8.12322 1.85098 7.27019C1.85098 6.41717 1.15948 5.72565 0.306458 5.72562V1.2616Z"/>
</mask>
<path d="M22.9603 5.72552V6.92552H24.1603V5.72552H22.9603ZM22.9603 8.81468H24.1603V7.61468H22.9603V8.81468ZM0.306458 8.81477L0.306413 7.61477L-0.893543 7.61482V8.81477H0.306458ZM0.306458 5.72562H-0.893543V6.92557L0.306414 6.92562L0.306458 5.72562ZM1.30646 -0.938403C0.0914309 -0.938403 -0.893543 0.0465703 -0.893543 1.2616H1.50646C1.50646 1.37205 1.41691 1.4616 1.30646 1.4616V-0.938403ZM21.9603 -0.938403H1.30646V1.4616H21.9603V-0.938403ZM24.1603 1.2616C24.1603 0.0465714 23.1753 -0.938403 21.9603 -0.938403V1.4616C21.8498 1.4616 21.7603 1.37205 21.7603 1.2616H24.1603ZM24.1603 5.72552V1.2616H21.7603V5.72552H24.1603ZM22.9603 6.92552C22.9603 6.92552 22.9603 6.92552 22.9603 6.92552C22.9603 6.92552 22.9603 6.92552 22.9603 6.92552H22.9603C22.9603 6.92552 22.9603 6.92552 22.9603 6.92552C22.9603 6.92552 22.9603 6.92552 22.9603 6.92552H22.9603C22.9603 6.92552 22.9603 6.92552 22.9603 6.92552C22.9603 6.92552 22.9603 6.92552 22.9603 6.92552V4.52553C22.9603 4.52553 22.9603 4.52553 22.9603 4.52553C22.9603 4.52553 22.9603 4.52553 22.9603 4.52553H22.9603C22.9603 4.52553 22.9603 4.52553 22.9603 4.52553C22.9603 4.52553 22.9603 4.52553 22.9603 4.52553H22.9603C22.9603 4.52553 22.9603 4.52553 22.9603 4.52553C22.9603 4.52553 22.9603 4.52553 22.9603 4.52553V6.92552ZM22.6157 7.2701C22.6157 7.0798 22.7699 6.92552 22.9603 6.92552V4.52553C21.4445 4.52553 20.2157 5.75431 20.2157 7.2701H22.6157ZM22.9603 7.61468C22.7699 7.61468 22.6157 7.46041 22.6157 7.2701H20.2157C20.2157 8.78589 21.4445 10.0147 22.9603 10.0147V7.61468ZM22.9603 7.61468C22.9603 7.61468 22.9603 7.61468 22.9603 7.61468C22.9603 7.61468 22.9603 7.61468 22.9603 7.61468H22.9603C22.9603 7.61468 22.9603 7.61468 22.9603 7.61468C22.9603 7.61468 22.9603 7.61468 22.9603 7.61468H22.9603C22.9603 7.61468 22.9603 7.61468 22.9603 7.61468C22.9603 7.61468 22.9603 7.61468 22.9603 7.61468V10.0147C22.9603 10.0147 22.9603 10.0147 22.9603 10.0147C22.9603 10.0147 22.9603 10.0147 22.9603 10.0147H22.9603C22.9603 10.0147 22.9603 10.0147 22.9603 10.0147C22.9603 10.0147 22.9603 10.0147 22.9603 10.0147H22.9603C22.9603 10.0147 22.9603 10.0147 22.9603 10.0147C22.9603 10.0147 22.9603 10.0147 22.9603 10.0147V7.61468ZM24.1603 13.2789V8.81468H21.7603V13.2789H24.1603ZM21.9603 15.4789C23.1753 15.4789 24.1603 14.494 24.1603 13.2789H21.7603C21.7603 13.1685 21.8498 13.0789 21.9603 13.0789V15.4789ZM1.30646 15.4789H21.9603V13.0789H1.30646V15.4789ZM-0.893543 13.2789C-0.893543 14.494 0.0914293 15.4789 1.30646 15.4789V13.0789C1.41692 13.0789 1.50646 13.1685 1.50646 13.2789H-0.893543ZM-0.893543 8.81477V13.2789H1.50646V8.81477H-0.893543ZM0.650978 7.27019C0.650978 7.46049 0.496713 7.61476 0.306413 7.61477L0.306502 10.0148C1.82224 10.0147 3.05098 8.78595 3.05098 7.27019H0.650978ZM0.306414 6.92562C0.496712 6.92562 0.650978 7.07989 0.650978 7.27019H3.05098C3.05098 5.75444 1.82224 4.52567 0.306501 4.52562L0.306414 6.92562ZM-0.893543 1.2616V5.72562H1.50646V1.2616H-0.893543Z" fill="#1E1E1E" mask="url(#path-1-inside-1_83_549)"/>
<path d="M8.38664 9.61768H7.54582V5.29932H8.85832L9.64347 8.69482L10.4228 5.29932H11.7206V9.61768H10.8798V6.69678C10.8798 6.61279 10.8808 6.49561 10.8827 6.34521C10.8847 6.19287 10.8857 6.07568 10.8857 5.99365L10.0683 9.61768H9.1923L8.38078 5.99365C8.38078 6.07568 8.38175 6.19287 8.38371 6.34521C8.38566 6.49561 8.38664 6.61279 8.38664 6.69678V9.61768ZM16.1048 5.29932L14.6605 7.99463V9.61768H13.7582V7.99463L12.264 5.29932H13.3275L14.224 7.18018L15.0824 5.29932H16.1048Z" fill="#1E1E1E"/>
</svg>
